#!OML:ASF X:\für Bonn\!DataBase\2005_08_11_Bastian_Final\c3d\Bastian.ASF
:FULLY-SPECIFIED
:DEGREES
321
root 0.206067 16.7308 -16.0242 536.199 -228.099 -171.423
lowerback 33.0415 -3.68889 15.5308
upperback 13.0134 1.61391 7.84406
thorax -2.11913 1.52456 -0.253407
lowerneck -22.3669 -9.38796 1.44327
upperneck 0.531785 -12.6196 -1.99167
head 3.34109 -6.3664 -1.94312
rclavicle -1.06549e-013 -8.5875e-014
rhumerus 23.6352 34.9011 -53.5985
rradius 31.973
rwrist -26.7849
rhand -19.3612 -2.68038
rfingers 7.12502
rthumb 6.95652 -32.5461
lclavicle -1.06549e-013 -8.5875e-014
lhumerus -146.172 20.7284 -113.04
lradius 3.52199
lwrist -143.453
lhand -6.95374 -18.578
lfingers 7.12502
lthumb 18.9153 10.5222
rfemur -16.4555 8.14537 16.3054
rtibia 61.9883
rfoot -13.3305 -4.91144
rtoes 20.6722
lfemur -2.29841 2.46581 -16.3916
ltibia 39.3777
lfoot -29.5041 -4.97326
ltoes -27.6279
322
root 0.210511 16.7234 -16.0147 535.637 -228.814 -171.713
lowerback 32.2294 -3.49354 15.3272
upperback 12.9737 1.59187 7.57881
thorax -1.8759 1.52761 -0.443817
lowerneck -22.0987 -9.43988 1.72179
upperneck 1.16295 -12.7645 -1.96565
head 3.48331 -6.42772 -1.99588
rclavicle 0 -2.22639e-014
rhumerus 23.6347 35.9388 -53.9884
rradius 32.6645
rwrist -26.2318
rhand -19.3316 -2.30771
rfingers 7.12502
rthumb 6.98506 -32.1725
lclavicle 0 -2.22639e-014
lhumerus -146.607 15.3746 -115.888
lradius 4.42228
lwrist -148.208
lhand -5.98984 -18.743
lfingers 7.12502
lthumb 19.8421 10.2642
rfemur -14.6635 9.51286 16.7236
rtibia 60.6485
rfoot -13.7106 -5.50468
rtoes 21.2029
lfemur -1.96565 2.13439 -16.1281
ltibia 39.3489
lfoot -29.7382 -5.01001
ltoes -28.892
323
root 0.215845 16.7218 -16.0012 535.097 -229.501 -171.984
lowerback 31.4294 -3.26397 15.0584
upperback 12.9369 1.60275 7.33754
thorax -1.63046 1.54249 -0.584701
lowerneck -21.8132 -9.49795 1.99656
upperneck 1.75176 -12.9164 -1.94035
head 3.60921 -6.49151 -2.04656
rclavicle -3.02153e-014 2.8625e-014
rhumerus 23.6939 36.9162 -54.2887
rradius 33.4406
rwrist -25.792
rhand -19.3065 -1.91497
rfingers 7.12502
rthumb 7.0093 -31.7789
lclavicle -3.02153e-014 2.8625e-014
lhumerus -146.738 10.0455 -118.651
lradius 5.46765
lwrist -152.907
lhand -5.35526 -19.0585
lfingers 7.12502
lthumb 20.452 9.88434
rfemur -12.9192 10.7067 17.1985
rtibia 59.3639
rfoot -14.1696 -6.1881
rtoes 22.7832
lfemur -1.66705 1.86713 -15.8617
ltibia 39.3962
lfoot -29.9901 -4.93249
ltoes -30.423
324
root 0.224279 16.7163 -15.9862 534.576 -230.146 -172.259
lowerback 30.6394 -3.01663 14.79
upperback 12.8855 1.64421 7.0842
thorax -1.39474 1.56982 -0.744272
lowerneck -21.4463 -9.55475 2.29778
upperneck 2.22072 -13.0731 -1.89079
head 3.68507 -6.55618 -2.08545
rclavicle -1.11319e-014 -4.45278e-014
rhumerus 23.7348 37.7889 -54.592
rradius 34.2666
rwrist -25.338
rhand -19.1838 -1.42279
rfingers 7.12502
rthumb 7.12778 -31.2828
lclavicle -1.11319e-014 -4.45278e-014
lhumerus -146.583 4.81028 -121.468
lradius 6.56403
lwrist -157.619
lhand -4.98304 -19.3282
lfingers 7.12502
lthumb 20.8097 9.57588
rfemur -11.3324 11.7026 17.7225
rtibia 58.1673
rfoot -14.6174 -6.8641
rtoes 24.0616
lfemur -1.41698 1.67563 -15.5788
ltibia 39.5065
lfoot -30.2519 -4.77501
ltoes -31.9964
325
root 0.234108 16.7083 -15.9701 534.014 -230.733 -172.56
lowerback 29.905 -2.74625 14.5084
upperback 12.8339 1.72893 6.82798
thorax -1.17133 1.61618 -0.90834
lowerneck -21.0507 -9.61027 2.6721
upperneck 2.62473 -13.2402 -1.88959
head 3.72735 -6.62838 -2.14553
rclavicle 2.54444e-014 -1.59028e-014
rhumerus 23.7414 38.5513 -54.912
rradius 35.1758
rwrist -24.8519
rhand -19.0393 -0.857394
rfingers 7.12502
rthumb 7.26719 -30.7126
lclavicle 2.54444e-014 -1.59028e-014
lhumerus -146.17 -0.317936 -124.388
lradius 7.69821
lwrist -162.336
lhand -4.85699 -19.5901
lfingers 7.12502
lthumb 20.9308 9.30062
rfemur -9.85751 12.4419 18.2886
rtibia 57.0194
rfoot -15.0529 -7.42061
rtoes 24.914
lfemur -1.13324 1.48597 -15.2744
ltibia 39.6054
lfoot -30.4732 -4.58415
ltoes -33.2555
326
root 0.245626 16.6999 -15.9519 533.474 -231.251 -172.863
lowerback 28.7546 -2.34742 14.0027
upperback 13.0348 1.81127 6.72236
thorax -0.766447 1.67579 -0.972805
lowerneck -20.5584 -9.67177 3.0428
upperneck 2.92729 -13.4125 -1.84431
head 3.72575 -6.70125 -2.1829
rclavicle -5.56597e-014 -2.8625e-014
rhumerus 23.7421 39.2869 -55.2122
rradius 36.1852
rwrist -24.42
rhand -18.9627 -0.264768
rfingers 7.12502
rthumb 7.34117 -30.1174
lclavicle -5.56597e-014 -2.8625e-014
lhumerus -145.466 -5.37175 -127.471
lradius 8.84128
lwrist -167.195
lhand -4.99142 -19.7648
lfingers 7.12502
lthumb 20.8017 9.14015
rfemur -8.54282 12.916 18.8151
rtibia 55.9471
rfoot -15.4795 -7.79077
rtoes 25.6848
lfemur -0.864794 1.33787 -14.9701
ltibia 39.7043
lfoot -30.5825 -4.48135
ltoes -34.0796
327
root 0.258545 16.6922 -15.934 532.934 -231.716 -173.17
lowerback 27.9464 -2.03322 13.6567
upperback 12.9917 1.93564 6.46084
thorax -0.447926 1.74073 -1.10416
lowerneck -19.8806 -9.73679 3.43083
upperneck 3.07312 -13.5868 -1.76018
head 3.64837 -6.77534 -2.19462
rclavicle 2.54444e-014 -5.40694e-014
rhumerus 23.7059 39.9004 -55.6075
rradius 37.2197
rwrist -23.8616
rhand -18.9339 0.408845
rfingers 7.12502
rthumb 7.36897 -29.4428
lclavicle 2.54444e-014 -5.40694e-014
lhumerus -144.433 -10.3228 -130.806
lradius 9.95352
lwrist -172.184
lhand -5.36918 -19.7803
lfingers 7.12502
lthumb 20.4387 9.16397
rfemur -7.40168 13.0085 19.2467
rtibia 54.9798
rfoot -15.8605 -7.92292
rtoes 26.4619
lfemur -0.579478 1.15826 -14.6765
ltibia 39.7848
lfoot -30.5699 -4.59178
ltoes -33.9735
328
root 0.272947 16.6859 -15.9162 532.447 -232.125 -173.438
lowerback 27.1085 -1.70037 13.2698
upperback 12.9408 2.076 6.18221
thorax -0.120697 1.81083 -1.23007
lowerneck -19.0389 -9.82907 3.76787
upperneck 3.1213 -13.7794 -1.59654
head 3.52347 -6.85667 -2.16336
rclavicle -4.92986e-014 -4.13472e-014
rhumerus 23.6767 40.5171 -56.0083
rradius 38.3152
rwrist -23.3198
rhand -18.9944 1.06585
rfingers 7.12502
rthumb 7.31058 -28.7879
lclavicle -4.92986e-014 -4.13472e-014
lhumerus -143.033 -15.1204 -134.478
lradius 11.0552
lwrist -177.427
lhand -6.00312 -19.5665
lfingers 7.12502
lthumb 19.8294 9.44193
rfemur -6.4578 12.7278 19.5242
rtibia 54.1294
rfoot -16.1487 -7.83852
rtoes 27.1669
lfemur -0.290699 1.03352 -14.4123
ltibia 39.8377
lfoot -30.4887 -4.77942
ltoes -33.6649
329
root 0.287869 16.681 -15.8992 531.947 -232.462 -173.726
lowerback 26.2988 -1.34995 12.8386
upperback 12.8743 2.24666 5.92823
thorax 0.178461 1.88961 -1.3068
lowerneck -18.0851 -9.92788 4.04797
upperneck 3.07487 -13.9577 -1.39764
head 3.3581 -6.93265 -2.10182
rclavicle -5.88403e-014 -9.54166e-015
rhumerus 23.6884 41.1376 -56.3785
rradius 39.4141
rwrist -22.7118
rhand -19.1702 1.64917
rfingers 7.12502
rthumb 7.14082 -28.2104
lclavicle -5.88403e-014 -9.54166e-015
lhumerus -142.043 -16.3363 -135.753
lradius 12.1359
lwrist -178.547
lhand -6.06325 -19.6115
lfingers 7.12502
lthumb 19.7716 9.40294
rfemur -5.67476 12.1427 19.6971
rtibia 53.4208
rfoot -16.4349 -7.49747
rtoes 27.5246
lfemur 0.00726929 0.914071 -14.1419
ltibia 39.8746
lfoot -30.3804 -5.01416
ltoes -33.7147
330
root 0.303888 16.676 -15.883 531.433 -232.704 -174.015
lowerback 25.5338 -0.987972 12.3787
upperback 12.8116 2.44531 5.69031
thorax 0.464736 1.97906 -1.35101
lowerneck -16.9403 -10.0465 4.19405
upperneck 2.561 -14.1338 -0.919872
head 3.42247 -6.99228 -2.14823
rclavicle -1.33583e-013 -2.54444e-014
rhumerus 23.7599 41.7513 -56.6944
rradius 40.5284
rwrist -22.0076
rhand -19.4596 2.14816
rfingers 7.12502
rthumb 6.86149 -27.7207
lclavicle -1.33583e-013 -2.54444e-014
lhumerus -140.994 -17.4891 -137.09
lradius 13.2679
lwrist -179.815
lhand -6.29806 -19.653
lfingers 7.12502
lthumb 19.5458 9.38449
rfemur -4.98124 11.38 19.7612
rtibia 52.8387
rfoot -16.7967 -6.84158
rtoes 27.8073
lfemur 0.331119 0.851384 -13.8898
ltibia 39.9072
lfoot -30.2486 -5.13187
ltoes -34.1912
331
root 0.319135 16.6713 -15.8696 530.912 -232.873 -174.369
lowerback 24.8131 -0.624921 11.9634
upperback 12.7009 2.67533 5.44624
thorax 0.68544 2.07962 -1.43006
lowerneck -15.868 -10.1562 4.4203
upperneck 2.46151 -14.2969 -0.652925
head 3.18243 -7.06505 -2.02199
rclavicle 4.29375e-014 -2.22639e-014
rhumerus 23.7622 42.3172 -57.064
rradius 41.7017
rwrist -21.2751
rhand -19.7992 2.50523
rfingers 7.12502
rthumb 6.53363 -27.374
lclavicle 4.29375e-014 -2.22639e-014
lhumerus -139.849 -18.6295 -138.635
lradius 14.4226
lwrist -181.281
lhand -6.80494 -19.6851
lfingers 7.12502
lthumb 19.0584 9.40113
rfemur -4.43605 10.51 19.7773
rtibia 52.3753
rfoot -17.1292 -6.00733
rtoes 28.0079
lfemur 0.603621 0.725353 -13.6353
ltibia 39.9441
lfoot -30.0896 -5.13251
ltoes -34.6716
332
root 0.334348 16.6656 -15.8595 530.399 -232.946 -174.686
lowerback 24.1994 -0.25473 11.5698
upperback 12.5924 2.9458 5.1873
thorax 0.867268 2.20026 -1.54256
lowerneck -14.8785 -10.2702 4.64805
upperneck 2.36901 -14.4587 -0.419062
head 2.96017 -7.13933 -1.91277
rclavicle -1.59028e-014 -6.36111e-014
rhumerus 23.7366 42.7827 -57.4307
rradius 42.8959
rwrist -20.4748
rhand -20.2179 2.72271
rfingers 7.12502
rthumb 6.12948 -27.1686
lclavicle -1.59028e-014 -6.36111e-014
lhumerus -138.476 -19.9925 -140.57
lradius 15.3756
lwrist -183.247
lhand -7.51782 -19.6665
lfingers 7.12502
lthumb 18.3727 9.48581
rfemur -3.95374 9.5785 19.7083
rtibia 52.002
rfoot -17.3695 -5.07138
rtoes 27.9148
lfemur 0.923081 0.544081 -13.4525
ltibia 39.9763
lfoot -29.9406 -5.03966
ltoes -35.1773
333
root 0.349538 16.6614 -15.8509 529.899 -232.932 -175.024
lowerback 23.6733 0.128736 11.2159
upperback 12.4276 3.26556 4.932
thorax 0.953724 2.33964 -1.68296
lowerneck -13.9104 -10.4018 4.81102
upperneck 2.33066 -14.6301 -0.147558
head 2.77035 -7.21651 -1.7866
rclavicle 2.70347e-014 1.59028e-014
rhumerus 23.4803 43.0535 -58.0717
rradius 44.0385
rwrist -19.4815
rhand -20.5719 2.87823
rfingers 7.12502
rthumb 5.7877 -27.0227
lclavicle 2.70347e-014 1.59028e-014
lhumerus -136.806 -21.4916 -142.945
lradius 16.1689
lwrist -185.609
lhand -8.40428 -19.4923
lfingers 7.12502
lthumb 17.5198 9.73828
rfemur -3.55411 8.70397 19.6447
rtibia 51.6887
rfoot -17.5143 -4.20883
rtoes 27.6881
lfemur 1.22606 0.384326 -13.2699
ltibia 39.9849
lfoot -29.751 -4.87493
ltoes -35.6494
334
root 0.363775 16.659 -15.8421 529.43 -232.846 -175.338
lowerback 23.2337 0.506209 10.8455
upperback 12.2449 3.59492 4.67939
thorax 0.97974 2.47965 -1.81248
lowerneck -12.9877 -10.5165 4.93211
upperneck 2.26272 -14.7678 0.125938
head 2.58512 -7.27885 -1.65381
rclavicle 2.46493e-014 -4.45278e-014
rhumerus 23.1735 43.2542 -58.755
rradius 45.2033
rwrist -18.4913
rhand -20.7847 2.95826
rfingers 7.12502
rthumb 5.58218 -26.9482
lclavicle 2.46493e-014 -4.45278e-014
lhumerus -135.542 -22.3402 -144.596
lradius 17.347
lwrist -186.928
lhand -9.38431 -19.5751
lfingers 7.12502
lthumb 16.5765 9.73695
rfemur -3.18532 7.92399 19.5912
rtibia 51.3984
rfoot -17.5684 -3.47529
rtoes 27.2206
lfemur 1.55806 0.200558 -13.1135
ltibia 39.9397
lfoot -29.5152 -4.74947
ltoes -35.9037
